<svg viewBox="0 0 10 10" xmlns="http://www.w3.org/2000/svg">
<path d="M9.41228 6.26087V9.41304H8.39474V6.69565C8.39474 6.68239 8.39475 6.66889 8.39476 6.65517C8.395 6.2928 8.39535 5.77699 8.22891 5.35074C8.13623 5.11341 7.98373 4.87816 7.73418 4.70636C7.48464 4.53458 7.18205 4.45652 6.8421 4.45652C6.50933 4.45652 6.21079 4.52571 5.95584 4.67314C5.69935 4.82146 5.51778 5.0312 5.39301 5.2631C5.15504 5.70543 5.11404 6.24803 5.11404 6.69565V9.5H4.00877V3.80435H5.02632V4.17391L5.97274 4.39909C6.14559 4.0564 6.6679 3.63043 7.45614 3.63043C8.38473 3.63043 8.81233 3.92613 9.04888 4.30719C9.31955 4.7432 9.41228 5.39929 9.41228 6.26087ZM1.7807 9.41304H0.675439V3.80435H1.7807V9.41304ZM1.22807 1.93478C0.821146 1.93478 0.5 1.56901 0.5 1.21739C0.5 0.801989 0.798332 0.5 1.22807 0.5C1.64528 0.5 1.93863 0.784635 1.95538 1.18135C1.92064 1.36578 1.82113 1.55991 1.67891 1.70794C1.52763 1.86541 1.36526 1.93478 1.22807 1.93478Z" />
</svg>
