<svg width="31" height="18" viewBox="0 0 31 18" fill="none" xmlns="http://www.w3.org/2000/svg">
    <path fill-rule="evenodd" clip-rule="evenodd" d="M2 1C2 1.55228 1.55228 2 1 2C0.447715 2 0 1.55228 0 1C0 0.447715 0.447715 0 1 0C1.55228 0 2 0.447715 2 1Z" fill="white"/>
    <path fill-rule="evenodd" clip-rule="evenodd" d="M31 2H7V0H31V2Z" fill="white"/>
    <path fill-rule="evenodd" clip-rule="evenodd" d="M2 9C2 9.55228 1.55228 10 1 10C0.447715 10 0 9.55228 0 9C0 8.44772 0.447715 8 1 8C1.55228 8 2 8.44772 2 9Z" fill="white"/>
    <path fill-rule="evenodd" clip-rule="evenodd" d="M31 10H7V8H31V10Z" fill="white"/>
    <path fill-rule="evenodd" clip-rule="evenodd" d="M2 17C2 17.5523 1.55228 18 1 18C0.447715 18 0 17.5523 0 17C0 16.4477 0.447715 16 1 16C1.55228 16 2 16.4477 2 17Z" fill="white"/>
    <path fill-rule="evenodd" clip-rule="evenodd" d="M25 18H7V16H25V18Z" fill="white"/>
</svg>
