<svg width="63" height="41" viewBox="0 0 63 41" fill="none" xmlns="http://www.w3.org/2000/svg">
<g clip-path="url(#clip0_837_2227)">
<path d="M61.6208 19.4833C61.5804 19.4429 61.5484 19.395 61.5266 19.3423C61.5047 19.2896 61.4935 19.2331 61.4935 19.1761C61.4935 19.119 61.5047 19.0625 61.5266 19.0098C61.5484 18.9571 61.5804 18.9092 61.6208 18.8689C61.7131 18.7786 61.7772 18.6635 61.8054 18.5375C61.8336 18.4116 61.8247 18.2801 61.7797 18.1591C61.6632 17.8731 61.5572 17.5871 61.4513 17.2905C61.3714 17.0942 61.3214 16.8871 61.303 16.6761C61.303 16.5595 61.5043 16.4536 61.5996 16.3371C61.6799 16.24 61.741 16.1286 61.7797 16.0087C61.8368 15.8341 61.8357 15.6457 61.7765 15.4719C61.7172 15.298 61.6031 15.1481 61.4513 15.0447C61.3218 14.9673 61.2103 14.863 61.1244 14.739C61.0384 14.615 60.9799 14.4741 60.9529 14.3256C60.9258 14.1772 60.9307 14.0247 60.9674 13.8783C61.004 13.7319 61.0715 13.5951 61.1653 13.4769C61.3058 13.29 61.4033 13.0745 61.4509 12.8456C61.4985 12.6167 61.495 12.3801 61.4407 12.1528C61.2477 11.6451 61.1472 11.1069 61.1441 10.5638C61.1441 9.93877 60.6674 9.74809 60.0848 9.93877C59.9814 9.99094 59.8822 10.0512 59.7882 10.1189L59.0149 10.6167C58.9339 10.4712 58.8828 10.311 58.8646 10.1454C58.8464 9.97989 58.8615 9.81239 58.9089 9.65275C58.9737 9.47661 58.9693 9.28247 58.8965 9.10947C58.8238 8.93647 58.6882 8.79749 58.517 8.72055C58.6547 8.20148 58.517 7.95783 57.8708 7.52351C57.6477 7.41641 57.4033 7.36081 57.1558 7.36081C56.9082 7.36081 56.6639 7.41641 56.4407 7.52351C56.3568 7.37218 56.2426 7.23975 56.1052 7.13447C55.9679 7.02919 55.8103 6.95332 55.6424 6.91158C55.4744 6.86985 55.2997 6.86314 55.129 6.89187C54.9584 6.9206 54.7955 6.98416 54.6505 7.0786C54.6015 7.10457 54.547 7.11815 54.4916 7.11815C54.4362 7.11815 54.3816 7.10457 54.3327 7.0786C54.2211 6.97155 54.1343 6.84139 54.0784 6.69724C54.0435 6.55396 53.9755 6.42085 53.8799 6.30862C53.7842 6.1964 53.6635 6.10818 53.5276 6.05105C53.4906 6.01987 53.461 5.98091 53.4409 5.93696C53.4208 5.89301 53.4106 5.84516 53.4111 5.79682C53.374 5.67868 53.3136 5.56922 53.2333 5.47497C53.153 5.38072 53.0546 5.30361 52.9438 5.24824C52.8331 5.19287 52.7123 5.16039 52.5888 5.15272C52.4652 5.14504 52.3414 5.16235 52.2246 5.2036C52.1322 5.23516 52.0333 5.24297 51.937 5.22631C51.8408 5.20965 51.7502 5.16905 51.6738 5.10826C51.576 5.01569 51.4594 4.94539 51.3319 4.90219C51.2044 4.85899 51.0691 4.84392 50.9352 4.85802C50.8013 4.87211 50.6721 4.91503 50.5563 4.98383C50.4406 5.05263 50.3412 5.14567 50.2649 5.25656C50.2175 5.33005 50.147 5.3856 50.0645 5.4144C49.9819 5.44319 49.8921 5.44356 49.8094 5.41546C49.7105 5.38877 49.6072 5.38255 49.5059 5.39718C49.4045 5.41181 49.3072 5.44698 49.22 5.50053C49.1327 5.55409 49.0573 5.62491 48.9983 5.70864C48.9394 5.79238 48.8981 5.88727 48.8772 5.9875C48.803 6.18877 48.7394 6.39004 48.6441 6.59131C48.5487 6.8555 48.3878 7.0912 48.1767 7.27644C47.9655 7.46168 47.7109 7.59041 47.4365 7.65063C47.5 7.29046 47.7967 7.01504 47.6166 6.59131C47.4365 6.16758 47.0445 6.26292 46.695 6.18877C46.7263 6.1339 46.7656 6.08393 46.8115 6.04046C47.1048 5.74496 47.2887 5.35841 47.333 4.94444C47.3772 4.53048 47.2793 4.11377 47.0551 3.76292C46.9592 3.62304 46.8358 3.50415 46.6925 3.41347C46.5492 3.3228 46.3889 3.26224 46.2214 3.23548C46.0539 3.20872 45.8828 3.21633 45.7183 3.25783C45.5539 3.29934 45.3996 3.37387 45.2649 3.4769C45.1483 3.58283 45.0212 3.66758 44.9365 3.74173C44.7954 3.5433 44.6279 3.3651 44.4386 3.21207C44.1915 3.08819 43.912 3.04407 43.6388 3.08581C43.3656 3.12756 43.112 3.25311 42.9132 3.44512C42.2352 4.07012 42.2776 4.08072 41.5361 3.77351C41.3783 3.69931 41.1995 3.68306 41.0309 3.72762C40.8624 3.77218 40.7149 3.87469 40.6145 4.01716C40.5509 4.09131 40.4979 4.17605 40.445 4.25021C39.4598 3.83707 39.4598 3.83707 38.8454 4.54682C38.3369 4.45148 38.0615 4.38792 37.7331 5.50021C37.6291 5.50344 37.5266 5.47471 37.4395 5.41788C37.3524 5.36105 37.2848 5.27887 37.2458 5.18241C37.1518 5.04407 37.0138 4.94157 36.8542 4.89157C36.6945 4.84157 36.5227 4.847 36.3666 4.90699C36.0064 5.03411 35.964 5.33072 35.9217 5.58495C35.6144 5.58495 35.3284 5.58495 35.053 5.58495C34.7776 5.58495 34.82 5.75444 34.7034 5.74385C34.4837 5.73956 34.2672 5.79809 34.0796 5.91255C33.8919 6.02702 33.7409 6.19267 33.6441 6.39004C33.5064 6.23114 33.3051 6.11461 33.2733 5.95572C33.1886 5.59555 33.2733 5.48961 33.6759 5.38368C34.0784 5.27775 34.5233 4.8858 34.1632 4.32436C34.1267 4.23618 34.1267 4.13712 34.1632 4.04894C34.2105 3.92452 34.2254 3.79009 34.2064 3.65833C34.1874 3.52657 34.1352 3.40182 34.0546 3.29584C33.9741 3.18985 33.8679 3.10612 33.746 3.05255C33.6241 2.99897 33.4906 2.97731 33.3581 2.98961C33.1144 2.98961 33.0085 2.91546 32.9873 2.65063C32.9706 2.45729 32.905 2.27137 32.7966 2.11038C32.7678 2.05177 32.7251 2.00106 32.6722 1.96264C32.6194 1.92422 32.558 1.89924 32.4934 1.88985C32.4287 1.88047 32.3627 1.88696 32.3011 1.90877C32.2396 1.93058 32.1842 1.96705 32.1399 2.01504C31.9704 2.20572 31.8962 2.12097 31.7161 2.01504C31.4868 1.88948 31.2219 1.84471 30.964 1.88792C30.7204 1.95148 30.8051 2.25868 30.8157 2.47055C30.8263 2.68241 30.9217 2.67182 30.9322 2.76716C30.9482 2.87249 30.9482 2.97962 30.9322 3.08495C30.8581 3.08495 30.7522 2.98961 30.7204 2.91546C30.6781 2.79506 30.6108 2.685 30.5228 2.5926C30.4348 2.50019 30.3282 2.42754 30.21 2.37946C30.0918 2.33138 29.9647 2.30897 29.8372 2.31372C29.7097 2.31846 29.5847 2.35026 29.4704 2.40699C29.2341 2.5017 29.0041 2.61138 28.7818 2.73538L27.9132 2.31165C27.896 2.29913 27.8816 2.28331 27.8707 2.26511C27.8598 2.24692 27.8526 2.22672 27.8496 2.20572C27.8099 2.05614 27.7294 1.92052 27.6172 1.81392C27.505 1.70733 27.3654 1.63393 27.214 1.6019C27.1293 1.6019 26.9916 1.51716 26.9704 1.4536C26.7585 1.24173 26.4831 1.14639 26.2606 1.02987C26.0939 0.934918 25.9085 0.877336 25.7174 0.861108C25.5262 0.84488 25.3337 0.870394 25.1534 0.935883C24.973 1.00137 24.8091 1.10527 24.6729 1.24039C24.5366 1.37551 24.4314 1.53862 24.3644 1.71843C24.3385 1.80192 24.2992 1.88064 24.2479 1.95148C24.0996 2.11038 23.7924 2.09978 23.7606 1.95148C23.7117 1.73803 23.5978 1.54499 23.4347 1.39892C23.2716 1.25285 23.0672 1.16092 22.8496 1.1358C22.7933 1.12063 22.7407 1.09398 22.6951 1.05752C22.6495 1.02106 22.612 0.975584 22.5848 0.923936C22.5393 0.823125 22.4708 0.734353 22.3848 0.664703C22.2989 0.595054 22.1979 0.546455 22.0898 0.522786C21.9818 0.499117 21.8697 0.501032 21.7625 0.528379C21.6553 0.555726 21.556 0.607747 21.4725 0.680292C21.3166 0.844667 21.1187 0.963176 20.9002 1.02294C20.6816 1.0827 20.4509 1.08144 20.2331 1.01927C20.044 0.981251 19.8475 1.01525 19.6822 1.11461C19.4094 1.33048 19.1511 1.56404 18.9089 1.81377C18.5382 2.18453 18.5382 2.18453 18.0615 1.97266C17.9004 1.87969 17.7178 1.83074 17.5318 1.83074C17.3459 1.83074 17.1632 1.87969 17.0022 1.97266C16.8336 2.0628 16.6404 2.09623 16.4513 2.068C16.0806 2.01504 15.731 1.99385 15.4873 2.37521C15.4645 2.41649 15.4334 2.45256 15.3959 2.48111C15.3583 2.50967 15.3153 2.53008 15.2694 2.54105C15.2236 2.55202 15.1759 2.5533 15.1295 2.5448C15.0831 2.53631 15.039 2.51824 15 2.49173C14.9023 2.41181 14.7891 2.35283 14.6676 2.31847C14.546 2.2841 14.4187 2.27509 14.2936 2.29197C14.1684 2.30886 14.0481 2.35129 13.94 2.41663C13.8319 2.48198 13.7384 2.56883 13.6653 2.67182C13.5823 2.7725 13.465 2.83899 13.336 2.85854C13.207 2.87809 13.0753 2.84932 12.9661 2.77775C12.8042 2.69359 12.627 2.64274 12.4451 2.62818C12.2631 2.61363 12.0801 2.63567 11.9068 2.693C11.4619 2.79894 11.3666 2.90487 11.3454 3.36038C11.3454 3.52987 11.2818 3.59343 11.0911 3.60402C10.6356 3.60402 10.4873 3.75233 10.4132 4.17605L10.2331 4.1019C10.0127 4.04607 9.77927 4.07777 9.58176 4.19035C9.38425 4.30293 9.23803 4.48764 9.17377 4.70572C9.17377 4.79046 9.02547 4.87521 8.91954 4.90699C8.82836 4.92005 8.74129 4.95344 8.66476 5.00469C8.58823 5.05594 8.52421 5.12374 8.47742 5.20308C8.43063 5.28241 8.40228 5.37125 8.39446 5.46302C8.38664 5.55479 8.39956 5.64715 8.43225 5.73326C8.44028 5.84693 8.45443 5.96009 8.47462 6.07224C8.59115 6.40063 8.47462 6.55953 8.20979 6.64428C8.13963 6.6541 8.0716 6.67558 8.00852 6.70783C7.91898 6.75972 7.84273 6.83171 7.7858 6.91813C7.72887 7.00454 7.69282 7.10301 7.68049 7.20576C7.66816 7.30851 7.67989 7.41271 7.71476 7.51014C7.74963 7.60757 7.80668 7.69556 7.8814 7.76716C8.41106 8.28622 8.30513 8.82648 7.59538 9.03834C7.43179 9.07854 7.28014 9.15716 7.15302 9.2677C7.02589 9.37824 6.92697 9.51751 6.86445 9.67394C6.68437 10.193 6.57843 10.2989 6.03818 10.2883C5.85921 10.2662 5.67762 10.2952 5.51449 10.3721C5.35136 10.449 5.21338 10.5705 5.11657 10.7227C5.01345 10.911 4.85942 11.0665 4.67209 11.1714C4.48476 11.2763 4.27169 11.3264 4.05725 11.3159C3.84296 11.3304 3.63517 11.3955 3.451 11.506C3.26683 11.6165 3.11154 11.7692 2.99793 11.9515C2.89151 12.1291 2.8353 12.3323 2.8353 12.5394C2.8353 12.7465 2.89151 12.9497 2.99793 13.1273C3.05103 13.2999 3.05103 13.4844 2.99793 13.657C2.94073 13.8351 2.92723 14.0243 2.95858 14.2086C2.98992 14.393 3.06518 14.5672 3.17801 14.7163C3.32631 14.8858 3.17801 14.9705 3.06148 14.9917C2.94901 15.007 2.83498 15.007 2.7225 14.9917C2.52322 14.9459 2.32168 14.9105 2.11869 14.8858C1.68437 14.8858 1.3242 15.2036 0.858095 15.1506C0.738952 15.1456 0.620494 15.1711 0.513984 15.2247C0.407474 15.2783 0.316451 15.3583 0.24957 15.457C0.182688 15.5558 0.142171 15.67 0.131871 15.7888C0.121571 15.9076 0.14183 16.027 0.190722 16.1358C0.241548 16.2655 0.305436 16.3898 0.3814 16.5066L0.328434 16.5807C-0.169448 17.0786 -0.158855 17.2799 0.328434 17.7989C0.475526 17.9413 0.580908 18.1211 0.633186 18.3191C0.685463 18.517 0.682648 18.7254 0.625044 18.9218C0.550891 19.2078 0.402586 19.4833 0.296654 19.7693C0.241503 19.8513 0.209441 19.9467 0.203833 20.0454C0.198224 20.144 0.219274 20.2424 0.264775 20.3302C0.310277 20.4179 0.378553 20.4918 0.462443 20.5441C0.546333 20.5964 0.642745 20.6251 0.741569 20.6273L1.48309 20.9133C1.34343 21.073 1.21595 21.243 1.10174 21.4218C1.05175 21.4959 1.01824 21.5799 1.00347 21.668C0.988695 21.7562 0.992999 21.8465 1.01609 21.9328C1.03918 22.0192 1.08053 22.0995 1.13733 22.1686C1.19414 22.2376 1.26508 22.2936 1.34538 22.3328C1.46616 22.4026 1.60317 22.4393 1.74263 22.4393C1.88209 22.4393 2.0191 22.4026 2.13987 22.3328C2.26849 22.2311 2.40688 22.1424 2.55301 22.068C2.75428 21.9939 2.96615 21.835 3.16742 22.068C3.08267 22.2587 2.98733 22.4388 2.91318 22.6189C2.77547 23.0002 2.91318 23.2121 3.27335 23.3074C3.56517 23.4042 3.87456 23.4364 4.18005 23.4016C4.48554 23.3669 4.77981 23.266 5.04242 23.1061C5.2132 23.0138 5.39463 22.9426 5.58267 22.8943C5.60268 22.921 5.6204 22.9493 5.63564 22.979C5.5403 23.0955 5.44496 23.2227 5.36021 23.3498C5.30674 23.4095 5.26958 23.4821 5.25234 23.5604C5.23509 23.6387 5.23835 23.7201 5.26178 23.7968C5.28521 23.8735 5.32803 23.9429 5.3861 23.9982C5.44417 24.0535 5.51552 24.0928 5.59326 24.1125C5.8883 24.21 6.19432 24.2705 6.50428 24.2926C6.86445 24.2926 6.92801 24.3985 6.84326 24.7481C6.78958 24.97 6.80904 25.2034 6.89876 25.4134C6.98848 25.6234 7.14365 25.7987 7.34115 25.9133C7.66954 26.104 7.99792 26.3159 8.31572 26.5278C8.39355 26.5718 8.4563 26.6382 8.49581 26.7184C8.71826 27.4388 9.55513 27.5129 10.1483 27.4811C10.4132 27.4811 10.7628 27.407 10.9428 27.5447C11.439 27.8731 12.0216 28.0464 12.6166 28.0426C12.7315 28.0509 12.8427 28.0871 12.9405 28.148C13.0383 28.2089 13.1198 28.2927 13.178 28.3922C13.3146 28.5661 13.4883 28.7072 13.6865 28.8053C13.8656 28.886 14.0637 28.9154 14.2585 28.89C14.7034 28.89 15.1483 28.7841 15.5933 28.7205C15.5933 28.7205 15.5933 28.7947 15.5933 28.8477C15.5933 29.5786 15.7204 29.7375 16.4513 29.854C16.7721 29.8805 17.0945 29.8805 17.4153 29.854C17.5 30.4366 17.5954 30.5532 18.178 30.6803C18.4958 30.7544 18.8136 30.7756 19.142 30.8286C19.4704 30.8816 19.6717 31.0193 19.6081 31.443C19.5975 31.6229 19.5975 31.8033 19.6081 31.9833C19.6043 32.0783 19.6257 32.1727 19.6701 32.2569C19.7146 32.341 19.7804 32.4119 19.861 32.4625C19.9417 32.513 20.0342 32.5413 20.1293 32.5446C20.2244 32.5479 20.3187 32.526 20.4026 32.4811C20.4644 32.4322 20.5409 32.4055 20.6197 32.4055C20.6986 32.4055 20.7751 32.4322 20.8369 32.4811C21.1257 32.6854 21.3519 32.966 21.4904 33.2915C21.6288 33.617 21.674 33.9747 21.6208 34.3244C21.5638 34.6495 21.5768 34.983 21.659 35.3027C21.7413 35.6224 21.8907 35.9209 22.0975 36.1782C22.5636 36.782 23.0191 37.3964 23.464 38.0002C23.5487 38.1266 23.6265 38.2574 23.6971 38.3922C22.8072 38.4451 18.3157 38.7523 15.0212 38.996C13.178 39.1443 5.75216 39.8116 2.83903 40.1612H2.77547V40.532H59.0467V40.1718H58.9089C58.4005 40.1083 48.0191 39.1125 44.4068 38.8265L38.1356 38.371L36.5149 38.2968C36.8221 37.7989 37.0975 37.3434 37.3941 36.8985C37.5692 36.6504 37.7678 36.4198 37.9873 36.21C38.2839 35.9345 38.6335 35.7227 38.6441 35.2672C38.6608 35.2003 38.6935 35.1385 38.7394 35.0871C38.9619 34.7693 39.2161 34.4727 39.428 34.1443C39.6399 33.8159 39.9259 33.2439 40.2331 32.8413C40.5107 32.4683 40.847 32.1427 41.2289 31.8773C42.1611 31.2841 43.1356 30.7439 44.0996 30.1824C44.3464 30.0533 44.6011 29.9401 44.8623 29.8434C44.8623 29.9917 44.8623 30.0765 44.8623 30.1506C44.851 30.2485 44.8642 30.3477 44.9008 30.4391C44.9374 30.5306 44.9961 30.6116 45.0718 30.6747C45.1475 30.7377 45.2377 30.781 45.3343 30.8004C45.4309 30.8199 45.5308 30.815 45.625 30.7862C45.9653 30.6877 46.2898 30.5415 46.589 30.3519C46.6508 30.3112 46.7203 30.2836 46.7932 30.2708C46.8661 30.2581 46.9408 30.2604 47.0128 30.2778C47.2887 30.3358 47.5737 30.3358 47.8496 30.2778C47.9804 30.2674 48.1077 30.2305 48.2237 30.1693C48.3397 30.108 48.442 30.0238 48.5243 29.9216C48.6066 29.8195 48.6672 29.7016 48.7024 29.5752C48.7376 29.4489 48.7466 29.3166 48.7289 29.1866C49.4916 29.0595 49.6505 28.8053 49.5022 27.9684L50.0106 27.8837C50.0954 28.371 50.3814 28.6464 50.9852 28.4239C51.0715 28.6219 51.1896 28.8044 51.3348 28.9642C51.654 29.2064 52.0561 29.3123 52.4532 29.2587C52.8502 29.2051 53.2099 28.9963 53.4534 28.6782C53.5472 28.5577 53.6838 28.478 53.8348 28.4557C54.232 28.3943 54.6129 28.2539 54.9549 28.0429C55.297 27.8318 55.5933 27.5544 55.8263 27.2269C55.9534 27.0574 56.0488 26.8773 56.1547 26.7078C56.3242 26.782 56.4513 26.8455 56.5784 26.8879C56.981 27.0362 57.0763 26.9833 57.214 26.5913C57.3335 26.2677 57.4751 25.9527 57.6378 25.6485C57.6593 25.5954 57.6925 25.5478 57.7349 25.5092C57.7774 25.4707 57.828 25.4422 57.8829 25.4259C57.9379 25.4096 57.9958 25.4059 58.0524 25.4151C58.109 25.4243 58.1628 25.4462 58.2098 25.479C58.3753 25.5765 58.5679 25.6179 58.7588 25.5969C58.9498 25.5759 59.1288 25.4937 59.2691 25.3625C59.5054 25.0929 59.7214 24.8061 59.9153 24.5044H60.2649C60.7733 24.5044 60.9534 24.3773 61.017 23.8689C61.0593 23.556 61.0593 23.2389 61.017 22.9261C61.017 22.5341 60.8475 22.1633 60.7522 21.7608C60.8488 21.8021 60.9478 21.8375 61.0488 21.8667C61.6844 22.0574 61.8962 21.8667 61.9916 21.2947C62.1096 20.6656 61.9765 20.0153 61.6208 19.4833ZM30.2649 32.0574C30.2013 32.4176 30.1378 32.7778 30.053 33.1167C29.9959 33.3322 29.9178 33.5415 29.82 33.7417C29.5519 34.34 29.432 34.9941 29.4704 35.6485C29.5066 36.4872 29.3202 37.3205 28.9301 38.0638C28.9039 38.1109 28.8675 38.1516 28.8235 38.1827C28.7795 38.2139 28.729 38.2348 28.6759 38.2439C27.9984 38.2809 27.3195 38.2809 26.642 38.2439C26.3683 38.1709 26.1218 38.02 25.9322 37.8095C25.2649 37.2269 24.6081 36.6231 23.9619 36.0193C23.6897 35.7669 23.4736 35.4602 23.3276 35.1189C23.1816 34.7776 23.109 34.4095 23.1144 34.0383V33.3392C23.1144 32.693 23.4322 32.2799 24.0784 32.2799C24.5463 32.315 25.0141 32.2118 25.4238 31.9833C25.5474 31.9051 25.6907 31.8637 25.8369 31.8637C25.9832 31.8637 26.1264 31.9051 26.25 31.9833C26.4119 32.0755 26.5926 32.1297 26.7784 32.1419C26.9643 32.154 27.1505 32.1237 27.323 32.0533C27.4954 31.9829 27.6496 31.8742 27.7739 31.7354C27.8982 31.5967 27.9893 31.4315 28.0403 31.2523C28.061 31.2078 28.0859 31.1652 28.1145 31.1252C28.6229 31.4536 28.9301 31.4218 29.5657 30.9663C29.7882 31.2311 30.0318 31.5066 30.2543 31.7926C30.2903 31.8765 30.2941 31.9708 30.2649 32.0574ZM39.4916 30.5532C39.3324 30.8576 39.1943 31.1726 39.0784 31.496C38.9031 31.9085 38.588 32.246 38.1886 32.4494C38.0521 32.5127 37.9294 32.6025 37.8276 32.7133C37.7258 32.8242 37.6469 32.9541 37.5954 33.0956C37.288 33.9192 36.8279 34.6775 36.2394 35.3307C35.9709 35.6505 35.7497 36.0073 35.5827 36.39C35.1662 37.1207 34.5174 37.6912 33.7394 38.0108C33.4325 38.1712 33.0899 38.2513 32.7437 38.2439C32.2882 38.2439 31.8962 38.2439 31.4301 38.2439C31.3136 37.7566 31.1865 37.2905 31.1123 36.8244C30.9732 35.6944 31.1454 34.5479 31.6102 33.5087C31.7479 33.1591 31.875 32.7989 32.0339 32.4494C32.1447 32.2047 32.2834 31.9737 32.4471 31.7608C32.5392 31.6348 32.6682 31.5407 32.8163 31.4913C32.9643 31.442 33.1241 31.4399 33.2733 31.4854C33.6794 31.5927 34.0941 31.6637 34.5128 31.6972C34.9683 31.6972 35.1272 31.5489 35.1272 31.104C35.1218 31.0264 35.1218 30.9486 35.1272 30.871C35.1272 30.7227 35.1272 30.6379 35.3708 30.6697C35.5786 30.691 35.788 30.691 35.9958 30.6697C36.4725 30.6697 36.642 30.5002 36.6844 30.0129C36.6844 29.9176 36.6844 29.8117 36.7479 29.6739C37.0975 29.9811 37.3517 30.1824 37.9238 29.7693C38.125 30.3201 38.5382 30.3201 38.9831 30.193C39.0808 30.1718 39.182 30.1718 39.2797 30.193C39.481 30.246 39.6505 30.2883 39.4916 30.5532Z" fill="white"/>
</g>
<defs>
<clipPath id="clip0_837_2227">
<rect width="62.0445" height="40" fill="white" transform="translate(0 0.5)"/>
</clipPath>
</defs>
</svg>
