<svg width="24" height="25" viewBox="0 0 24 25" fill="none" xmlns="http://www.w3.org/2000/svg">
<circle cx="12" cy="12.7402" r="12" fill="#034638"/>
<path d="M14.5955 6.89693C14.6592 6.79247 14.7442 6.74023 14.8503 6.74023H15.6147C15.6677 6.74023 15.6996 6.7559 15.7102 6.78724C15.7208 6.81858 15.7155 6.85514 15.6943 6.89693L9.40446 17.5835C9.34076 17.688 9.26115 17.7402 9.16561 17.7402H8.40127C8.3482 17.7402 8.31104 17.7246 8.28981 17.6932C8.27919 17.6619 8.2845 17.6253 8.30573 17.5835L14.5955 6.89693ZM8.9586 12.3969C8.50212 12.3969 8.11465 12.2872 7.79618 12.0679C7.47771 11.8485 7.25478 11.556 7.12739 11.1904C7.10616 11.1173 7.08493 11.0441 7.06369 10.971C7.05308 10.8979 7.04246 10.8091 7.03185 10.7046C7.02123 10.5897 7.01062 10.4487 7 10.2815C7 10.104 7 9.87414 7 9.59209C7 9.31004 7 9.08544 7 8.9183C7.01062 8.74071 7.02123 8.59968 7.03185 8.49522C7.04246 8.38031 7.05308 8.28629 7.06369 8.21317C7.08493 8.14004 7.10616 8.06692 7.12739 7.9938C7.25478 7.62817 7.47771 7.33568 7.79618 7.1163C8.11465 6.89693 8.50212 6.78724 8.9586 6.78724C9.41507 6.78724 9.80255 6.89693 10.121 7.1163C10.4395 7.33568 10.6624 7.62817 10.7898 7.9938C10.811 8.06692 10.827 8.14004 10.8376 8.21317C10.8588 8.28629 10.8747 8.38031 10.8854 8.49522C10.896 8.59968 10.9013 8.74071 10.9013 8.9183C10.9119 9.08544 10.9172 9.31004 10.9172 9.59209C10.9172 9.87414 10.9119 10.104 10.9013 10.2815C10.9013 10.4487 10.896 10.5897 10.8854 10.7046C10.8747 10.8091 10.8588 10.8979 10.8376 10.971C10.827 11.0441 10.811 11.1173 10.7898 11.1904C10.6624 11.556 10.4395 11.8485 10.121 12.0679C9.80255 12.2872 9.41507 12.3969 8.9586 12.3969ZM8.9586 11.4881C9.17091 11.4881 9.35138 11.4411 9.5 11.3471C9.64862 11.2531 9.75478 11.1173 9.81847 10.9397C9.82909 10.8979 9.8397 10.8509 9.85032 10.7986C9.86093 10.7464 9.86624 10.6733 9.86624 10.5793C9.87686 10.4748 9.88217 10.3442 9.88217 10.1875C9.89278 10.0308 9.89809 9.83235 9.89809 9.59209C9.89809 9.35182 9.89278 9.15334 9.88217 8.99664C9.88217 8.83995 9.87686 8.71459 9.86624 8.62058C9.86624 8.51611 9.86093 8.43777 9.85032 8.38553C9.8397 8.3333 9.82909 8.28629 9.81847 8.24451C9.75478 8.06692 9.64862 7.93112 9.5 7.8371C9.35138 7.74308 9.17091 7.69607 8.9586 7.69607C8.74628 7.69607 8.56582 7.74308 8.4172 7.8371C8.26858 7.93112 8.16242 8.06692 8.09873 8.24451C8.08811 8.28629 8.07749 8.3333 8.06688 8.38553C8.05626 8.43777 8.04565 8.51611 8.03503 8.62058C8.03503 8.71459 8.02972 8.83995 8.01911 8.99664C8.01911 9.15334 8.01911 9.35182 8.01911 9.59209C8.01911 9.83235 8.01911 10.0308 8.01911 10.1875C8.02972 10.3442 8.03503 10.4748 8.03503 10.5793C8.04565 10.6733 8.05626 10.7464 8.06688 10.7986C8.07749 10.8509 8.08811 10.8979 8.09873 10.9397C8.16242 11.1173 8.26858 11.2531 8.4172 11.3471C8.56582 11.4411 8.74628 11.4881 8.9586 11.4881ZM13.2102 16.5023C13.189 16.4292 13.1677 16.3561 13.1465 16.283C13.1359 16.2098 13.1253 16.1211 13.1146 16.0166C13.104 15.9017 13.0934 15.7607 13.0828 15.5935C13.0828 15.4159 13.0828 15.1861 13.0828 14.9041C13.0828 14.622 13.0828 14.3974 13.0828 14.2303C13.0934 14.0527 13.104 13.9116 13.1146 13.8072C13.1253 13.6923 13.1359 13.5983 13.1465 13.5251C13.1677 13.452 13.189 13.3789 13.2102 13.3058C13.3376 12.9401 13.5605 12.6476 13.879 12.4283C14.1975 12.2089 14.5849 12.0992 15.0414 12.0992C15.4979 12.0992 15.8854 12.2089 16.2038 12.4283C16.5223 12.6476 16.7452 12.9401 16.8726 13.3058C16.8938 13.3789 16.9098 13.452 16.9204 13.5251C16.9416 13.5983 16.9575 13.6923 16.9682 13.8072C16.9788 13.9116 16.9841 14.0527 16.9841 14.2303C16.9947 14.3974 17 14.622 17 14.9041C17 15.1861 16.9947 15.4159 16.9841 15.5935C16.9841 15.7607 16.9788 15.9017 16.9682 16.0166C16.9575 16.1211 16.9416 16.2098 16.9204 16.283C16.9098 16.3561 16.8938 16.4292 16.8726 16.5023C16.7452 16.868 16.5223 17.1605 16.2038 17.3798C15.8854 17.5992 15.4979 17.7089 15.0414 17.7089C14.5849 17.7089 14.1975 17.5992 13.879 17.3798C13.5605 17.1605 13.3376 16.868 13.2102 16.5023ZM14.1815 16.2516C14.2452 16.4292 14.3514 16.565 14.5 16.659C14.6486 16.7531 14.8291 16.8001 15.0414 16.8001C15.2537 16.8001 15.4342 16.7531 15.5828 16.659C15.7314 16.565 15.8376 16.4292 15.9013 16.2516C15.9119 16.2098 15.9225 16.1628 15.9331 16.1106C15.9437 16.0584 15.949 15.9852 15.949 15.8912C15.9597 15.7868 15.965 15.6562 15.965 15.4995C15.9756 15.3428 15.9809 15.1443 15.9809 14.9041C15.9809 14.6638 15.9756 14.4653 15.965 14.3086C15.965 14.1519 15.9597 14.0266 15.949 13.9325C15.949 13.8281 15.9437 13.7497 15.9331 13.6975C15.9225 13.6453 15.9119 13.5983 15.9013 13.5565C15.8376 13.3789 15.7314 13.2431 15.5828 13.1491C15.4342 13.055 15.2537 13.008 15.0414 13.008C14.8291 13.008 14.6486 13.055 14.5 13.1491C14.3514 13.2431 14.2452 13.3789 14.1815 13.5565C14.1709 13.5983 14.1603 13.6453 14.1497 13.6975C14.1391 13.7497 14.1285 13.8281 14.1178 13.9325C14.1178 14.0266 14.1125 14.1519 14.1019 14.3086C14.1019 14.4653 14.1019 14.6638 14.1019 14.9041C14.1019 15.1443 14.1019 15.3428 14.1019 15.4995C14.1125 15.6562 14.1178 15.7868 14.1178 15.8912C14.1285 15.9852 14.1391 16.0584 14.1497 16.1106C14.1603 16.1628 14.1709 16.2098 14.1815 16.2516Z" fill="white"/>
</svg>
