<svg width="32" height="32" viewBox="0 0 32 32" fill="none" xmlns="http://www.w3.org/2000/svg">
<path d="M18.3133 11.8405C20.1007 13.6279 20.1007 16.5259 18.3133 18.3133L19.0204 19.0204C21.1983 16.8425 21.1983 13.3114 19.0204 11.1334L18.3133 11.8405ZM18.3133 18.3133C16.5259 20.1007 13.6279 20.1007 11.8405 18.3133L11.1334 19.0204C13.3114 21.1983 16.8425 21.1983 19.0204 19.0204L18.3133 18.3133ZM11.8405 18.3133C10.0532 16.5259 10.0532 13.6279 11.8405 11.8405L11.1334 11.1334C8.95552 13.3114 8.95552 16.8425 11.1334 19.0204L11.8405 18.3133ZM11.8405 11.8405C13.6279 10.0532 16.5259 10.0532 18.3133 11.8405L19.0204 11.1334C16.8425 8.95552 13.3114 8.95552 11.1334 11.1334L11.8405 11.8405Z" fill="#53565A"/>
<path d="M17.9541 18.6612L21.6464 22.3535L22.3535 21.6464L18.6612 17.9541L17.9541 18.6612Z" fill="#53565A"/>
</svg>
