<svg width="57" height="56" viewBox="0 0 57 56" fill="none" xmlns="http://www.w3.org/2000/svg">
<mask id="mask0_279_25360" style="mask-type:alpha" maskUnits="userSpaceOnUse" x="0" y="0" width="57" height="56">
<circle cx="28.5" cy="28" r="28" fill="#F3E500"/>
</mask>
<g mask="url(#mask0_279_25360)">
<path d="M18.6 37.0732C18.6 37.6793 18.1122 38.1707 17.5105 38.1707C16.9088 38.1707 16.4211 37.6793 16.4211 37.0732C16.4211 36.467 16.9088 35.9756 17.5105 35.9756C18.1122 35.9756 18.6 36.467 18.6 37.0732Z" fill="#6ECEB2"/>
<path d="M9.15789 38.1707C9.15789 38.7769 8.67012 39.2683 8.06842 39.2683C7.46672 39.2683 6.97895 38.7769 6.97895 38.1707C6.97895 37.5646 7.46672 37.0732 8.06842 37.0732C8.67012 37.0732 9.15789 37.5646 9.15789 38.1707Z" fill="#6ECEB2"/>
<path d="M5.52632 46.5854C5.52632 47.1915 5.03854 47.6829 4.43684 47.6829C3.83514 47.6829 3.34737 47.1915 3.34737 46.5854C3.34737 45.9792 3.83514 45.4878 4.43684 45.4878C5.03854 45.4878 5.52632 45.9792 5.52632 46.5854Z" fill="#6ECEB2"/>
<path d="M-2.46316 48.7805C-2.46316 49.3867 -2.95093 49.8781 -3.55263 49.8781C-4.15433 49.8781 -4.64211 49.3867 -4.64211 48.7805C-4.64211 48.1743 -4.15433 47.6829 -3.55263 47.6829C-2.95093 47.6829 -2.46316 48.1743 -2.46316 48.7805Z" fill="#6ECEB2"/>
<path d="M24.4105 29.0244C24.4105 29.6306 23.9228 30.122 23.3211 30.122C22.7194 30.122 22.2316 29.6306 22.2316 29.0244C22.2316 28.4182 22.7194 27.9268 23.3211 27.9268C23.9228 27.9268 24.4105 28.4182 24.4105 29.0244Z" fill="#6ECEB2"/>
<path d="M6.25263 41.8293C6.25263 43.0416 5.27708 44.0244 4.07368 44.0244C2.87028 44.0244 1.89474 43.0416 1.89474 41.8293C1.89474 40.6169 2.87028 39.6341 4.07368 39.6341C5.27708 39.6341 6.25263 40.6169 6.25263 41.8293Z" fill="#6ECEB2"/>
<path d="M1.89474 45.4878C1.89474 46.296 1.24437 46.9512 0.442105 46.9512C-0.360161 46.9512 -1.01053 46.296 -1.01053 45.4878C-1.01053 44.6796 -0.360161 44.0244 0.442105 44.0244C1.24437 44.0244 1.89474 44.6796 1.89474 45.4878Z" fill="#6ECEB2"/>
<path d="M2.62105 49.5122C2.62105 50.5225 1.8081 51.3415 0.805263 51.3415C-0.19757 51.3415 -1.01053 50.5225 -1.01053 49.5122C-1.01053 48.5019 -0.19757 47.6829 0.805263 47.6829C1.8081 47.6829 2.62105 48.5019 2.62105 49.5122Z" fill="#6ECEB2"/>
<path d="M25.1368 24.2683C25.1368 25.4806 24.1613 26.4634 22.9579 26.4634C21.7545 26.4634 20.7789 25.4806 20.7789 24.2683C20.7789 23.056 21.7545 22.0732 22.9579 22.0732C24.1613 22.0732 25.1368 23.056 25.1368 24.2683Z" fill="#6ECEB2"/>
<path d="M-1.01053 52.8049C-1.01053 54.0172 -1.98607 55 -3.18947 55C-4.39287 55 -5.36842 54.0172 -5.36842 52.8049C-5.36842 51.5925 -4.39287 50.6098 -3.18947 50.6098C-1.98607 50.6098 -1.01053 51.5925 -1.01053 52.8049Z" fill="#6ECEB2"/>
<path d="M20.7789 27.9268C20.7789 28.7351 20.1286 29.3902 19.3263 29.3902C18.524 29.3902 17.8737 28.7351 17.8737 27.9268C17.8737 27.1186 18.524 26.4634 19.3263 26.4634C20.1286 26.4634 20.7789 27.1186 20.7789 27.9268Z" fill="#6ECEB2"/>
<path d="M10.6105 42.561C10.6105 43.3692 9.96016 44.0244 9.15789 44.0244C8.35563 44.0244 7.70526 43.3692 7.70526 42.561C7.70526 41.7528 8.35563 41.0976 9.15789 41.0976C9.96016 41.0976 10.6105 41.7528 10.6105 42.561Z" fill="#6ECEB2"/>
<path d="M-6.09474 51.3415C-6.09474 52.1497 -6.7451 52.8049 -7.54737 52.8049C-8.34963 52.8049 -9 52.1497 -9 51.3415C-9 50.5332 -8.34963 49.8781 -7.54737 49.8781C-6.7451 49.8781 -6.09474 50.5332 -6.09474 51.3415Z" fill="#6ECEB2"/>
<path d="M16.4211 33.0488C16.4211 34.0591 15.6081 34.878 14.6053 34.878C13.6024 34.878 12.7895 34.0591 12.7895 33.0488C12.7895 32.0385 13.6024 31.2195 14.6053 31.2195C15.6081 31.2195 16.4211 32.0385 16.4211 33.0488Z" fill="#6ECEB2"/>
<path d="M22.2316 32.6829C22.2316 33.6932 21.4186 34.5122 20.4158 34.5122C19.413 34.5122 18.6 33.6932 18.6 32.6829C18.6 31.6727 19.413 30.8537 20.4158 30.8537C21.4186 30.8537 22.2316 31.6727 22.2316 32.6829Z" fill="#6ECEB2"/>
<path d="M14.9684 38.5366C14.9684 39.7489 13.9929 40.7317 12.7895 40.7317C11.5861 40.7317 10.6105 39.7489 10.6105 38.5366C10.6105 37.3243 11.5861 36.3415 12.7895 36.3415C13.9929 36.3415 14.9684 37.3243 14.9684 38.5366Z" fill="#6ECEB2"/>
<path d="M32.4 12.9268C32.4 12.3207 32.8878 11.8293 33.4895 11.8293C34.0912 11.8293 34.5789 12.3207 34.5789 12.9268C34.5789 13.533 34.0912 14.0244 33.4895 14.0244C32.8878 14.0244 32.4 13.533 32.4 12.9268Z" fill="#6ECEB2"/>
<path d="M41.8421 11.8293C41.8421 11.2231 42.3299 10.7317 42.9316 10.7317C43.5333 10.7317 44.0211 11.2231 44.0211 11.8293C44.0211 12.4354 43.5333 12.9268 42.9316 12.9268C42.3299 12.9268 41.8421 12.4354 41.8421 11.8293Z" fill="#6ECEB2"/>
<path d="M45.4737 3.41463C45.4737 2.80847 45.9615 2.31707 46.5632 2.31707C47.1649 2.31707 47.6526 2.80847 47.6526 3.41463C47.6526 4.0208 47.1649 4.51219 46.5632 4.51219C45.9615 4.51219 45.4737 4.0208 45.4737 3.41463Z" fill="#6ECEB2"/>
<path d="M53.4632 1.21951C53.4632 0.613346 53.9509 0.121951 54.5526 0.121951C55.1543 0.121951 55.6421 0.613346 55.6421 1.21951C55.6421 1.82568 55.1543 2.31707 54.5526 2.31707C53.9509 2.31707 53.4632 1.82568 53.4632 1.21951Z" fill="#6ECEB2"/>
<path d="M26.5895 20.9756C26.5895 20.3694 27.0772 19.878 27.6789 19.878C28.2806 19.878 28.7684 20.3694 28.7684 20.9756C28.7684 21.5818 28.2806 22.0732 27.6789 22.0732C27.0772 22.0732 26.5895 21.5818 26.5895 20.9756Z" fill="#6ECEB2"/>
<path d="M44.7474 8.17073C44.7474 6.9584 45.7229 5.97561 46.9263 5.97561C48.1297 5.97561 49.1053 6.9584 49.1053 8.17073C49.1053 9.38306 48.1297 10.3659 46.9263 10.3659C45.7229 10.3659 44.7474 9.38306 44.7474 8.17073Z" fill="#6ECEB2"/>
<path d="M49.1053 4.51219C49.1053 3.70397 49.7556 3.04878 50.5579 3.04878C51.3602 3.04878 52.0105 3.70397 52.0105 4.5122C52.0105 5.32042 51.3602 5.97561 50.5579 5.97561C49.7556 5.97561 49.1053 5.32042 49.1053 4.51219Z" fill="#6ECEB2"/>
<path d="M48.3789 0.487805C48.3789 -0.522472 49.1919 -1.34146 50.1947 -1.34146C51.1976 -1.34146 52.0105 -0.522472 52.0105 0.487805C52.0105 1.49808 51.1976 2.31707 50.1947 2.31707C49.1919 2.31707 48.3789 1.49808 48.3789 0.487805Z" fill="#6ECEB2"/>
<path d="M25.8632 25.7317C25.8632 24.5194 26.8387 23.5366 28.0421 23.5366C29.2455 23.5366 30.2211 24.5194 30.2211 25.7317C30.2211 26.944 29.2455 27.9268 28.0421 27.9268C26.8387 27.9268 25.8632 26.944 25.8632 25.7317Z" fill="#6ECEB2"/>
<path d="M52.0105 -2.80488C52.0105 -4.01721 52.9861 -5 54.1895 -5C55.3929 -5 56.3684 -4.01721 56.3684 -2.80488C56.3684 -1.59255 55.3929 -0.609756 54.1895 -0.609756C52.9861 -0.609756 52.0105 -1.59255 52.0105 -2.80488Z" fill="#6ECEB2"/>
<path d="M30.2211 22.0732C30.2211 21.2649 30.8714 20.6098 31.6737 20.6098C32.476 20.6098 33.1263 21.2649 33.1263 22.0732C33.1263 22.8814 32.476 23.5366 31.6737 23.5366C30.8714 23.5366 30.2211 22.8814 30.2211 22.0732Z" fill="#6ECEB2"/>
<path d="M40.3895 7.43902C40.3895 6.6308 41.0398 5.97561 41.8421 5.97561C42.6444 5.97561 43.2947 6.6308 43.2947 7.43902C43.2947 8.24724 42.6444 8.90244 41.8421 8.90244C41.0398 8.90244 40.3895 8.24724 40.3895 7.43902Z" fill="#6ECEB2"/>
<path d="M57.0947 -1.34146C57.0947 -2.14968 57.7451 -2.80488 58.5474 -2.80488C59.3496 -2.80488 60 -2.14968 60 -1.34146C60 -0.533241 59.3496 0.121952 58.5474 0.121952C57.7451 0.121952 57.0947 -0.533241 57.0947 -1.34146Z" fill="#6ECEB2"/>
<path d="M34.5789 16.9512C34.5789 15.9409 35.3919 15.122 36.3947 15.122C37.3976 15.122 38.2105 15.9409 38.2105 16.9512C38.2105 17.9615 37.3976 18.7805 36.3947 18.7805C35.3919 18.7805 34.5789 17.9615 34.5789 16.9512Z" fill="#6ECEB2"/>
<path d="M28.7684 17.3171C28.7684 16.3068 29.5814 15.4878 30.5842 15.4878C31.587 15.4878 32.4 16.3068 32.4 17.3171C32.4 18.3273 31.587 19.1463 30.5842 19.1463C29.5814 19.1463 28.7684 18.3273 28.7684 17.3171Z" fill="#6ECEB2"/>
<path d="M36.0316 11.4634C36.0316 10.2511 37.0071 9.26829 38.2105 9.26829C39.4139 9.26829 40.3895 10.2511 40.3895 11.4634C40.3895 12.6757 39.4139 13.6585 38.2105 13.6585C37.0071 13.6585 36.0316 12.6757 36.0316 11.4634Z" fill="#6ECEB2"/>
<path className="hand" d="M28 43V34.5C28 34.1022 28.158 33.7206 28.4393 33.4393C28.7206 33.158 29.1022 33 29.5 33V33C29.8978 33 30.2794 33.158 30.5607 33.4393C30.842 33.7206 31 34.1022 31 34.5V38L36.312 38.59C36.7566 38.6394 37.1845 38.7875 37.5644 39.0237C37.9443 39.2598 38.2666 39.5778 38.5077 39.9546C38.7488 40.3314 38.9026 40.7573 38.9579 41.2011C39.0131 41.645 38.9684 42.0956 38.827 42.52L37 48H29L26.879 45.879C26.6003 45.6004 26.3792 45.2696 26.2284 44.9055C26.0776 44.5414 26 44.1511 26 43.757V42C26 41.4696 26.2107 40.9609 26.5858 40.5858C26.9609 40.2107 27.4696 40 28 40V40" stroke="#6ECEB2" stroke-linecap="round" stroke-linejoin="round"/>
</g>
</svg>
