<?xml version="1.0" encoding="UTF-8"?>
<svg id="Layer_2" data-name="Layer 2" xmlns="http://www.w3.org/2000/svg" viewBox="0 0 50 50">
  <defs>
    <style>
      .cls-1 {
        fill: none;
        stroke: #53565a;
        stroke-linecap: round;
        stroke-linejoin: round;
      }
    </style>
  </defs>
  <path class="cls-1" d="M29.52,15.88l-11.98,5.99"/>
  <path class="cls-1" d="M29.52,34.12l-11.98-5.99"/>
  <path class="cls-1" d="M35.77,19.75c3.86,0,7-3.13,7-7s-3.13-7-7-7-7,3.13-7,7,3.13,7,7,7Z"/>
  <path class="cls-1" d="M35.77,44.24c3.86,0,7-3.13,7-7s-3.13-7-7-7-7,3.13-7,7,3.13,7,7,7Z"/>
  <path class="cls-1" d="M11.28,32c3.86,0,7-3.13,7-7s-3.13-7-7-7-7,3.13-7,7,3.13,7,7,7Z"/>
</svg>