<?xml version="1.0" encoding="UTF-8"?>
<svg id="Layer_1" data-name="Layer 1" xmlns="http://www.w3.org/2000/svg" viewBox="0 0 50 50">
  <path d="M46.37,12.3c-1.57,.74-3.13,.99-4.96,1.24,1.83-.99,3.13-2.47,3.66-4.45-1.57,.99-3.4,1.48-5.49,1.98-1.57-1.48-3.92-2.47-6.27-2.47-4.44,0-8.36,3.71-8.36,8.16,0,.74,0,1.24,.26,1.73-7.05-.25-13.58-3.46-17.76-8.41-.78,1.24-1.04,2.47-1.04,4.2,0,2.72,1.57,5.19,3.92,6.68-1.31,0-2.61-.49-3.92-.99,0,3.96,2.87,7.17,6.79,7.91-.78,.25-1.57,.25-2.35,.25-.52,0-1.04,0-1.57-.25,1.04,3.22,4.18,5.69,8.1,5.69-2.87,2.23-6.53,3.46-10.71,3.46h-2.09c3.92,2.23,8.36,3.71,13.06,3.71,15.67,0,24.29-12.37,24.29-23v-.99c1.83-1.24,3.4-2.72,4.44-4.45Z"/>
</svg>