<svg viewBox="0 0 13 10" xmlns="http://www.w3.org/2000/svg">
<path d="M13 1.15385C12.5125 1.38462 12.025 1.46154 11.4563 1.53846C12.025 1.23077 12.4312 0.769231 12.5938 0.153846C12.1062 0.461539 11.5375 0.615385 10.8875 0.769231C10.4 0.307692 9.66875 0 8.9375 0C7.55625 0 6.3375 1.15385 6.3375 2.53846C6.3375 2.76923 6.3375 2.92308 6.41875 3.07692C4.225 3 2.19375 2 0.89375 0.461538C0.65 0.846154 0.56875 1.23077 0.56875 1.76923C0.56875 2.61538 1.05625 3.38462 1.7875 3.84615C1.38125 3.84615 0.975 3.69231 0.56875 3.53846C0.56875 4.76923 1.4625 5.76923 2.68125 6C2.4375 6.07692 2.19375 6.07692 1.95 6.07692C1.7875 6.07692 1.625 6.07692 1.4625 6C1.7875 7 2.7625 7.76923 3.98125 7.76923C3.0875 8.46154 1.95 8.84615 0.65 8.84615C0.40625 8.84615 0.24375 8.84615 0 8.84615C1.21875 9.53846 2.6 10 4.0625 10C8.9375 10 11.6188 6.15385 11.6188 2.84615C11.6188 2.76923 11.6188 2.61538 11.6188 2.53846C12.1875 2.15385 12.675 1.69231 13 1.15385Z"/>
</svg>
